<svg width="600" height="205" viewBox="0 0 600 205" fill="none" xmlns="http://www.w3.org/2000/svg">
<g clip-path="url(#clip0_27_37)">
<path d="M0 102.5L59.2476 0H177.743L236.99 102.5L177.743 205H59.2476L0 102.5Z" fill="#F37121"/>
<path d="M112.373 137.021C112.373 140.335 111.129 143.234 108.64 145.72C106.152 148.205 103.249 149.448 99.931 149.448H37.721V87.3109L50.163 74.8834H37.721V62.4559H99.931C103.249 62.4559 106.152 63.6987 108.64 66.1842C111.129 68.6697 112.373 71.5694 112.373 74.8834V137.021ZM98.1535 137.021V74.8834H51.9404V147.673L62.605 137.021H98.1535Z" fill="#010518"/>
<path d="M202.084 137.021C202.084 140.453 200.84 143.412 198.352 145.897C195.982 148.265 193.079 149.448 189.642 149.448H139.874V137.021H187.865V112.166H152.316C148.88 112.166 145.918 110.982 143.429 108.615C141.059 106.13 139.874 103.171 139.874 99.7383V74.8834C139.874 71.4511 141.059 68.5513 143.429 66.1842C145.918 63.6987 148.88 62.4559 152.316 62.4559H202.084V74.8834H154.094V99.7383H189.642C193.079 99.7383 195.982 100.981 198.352 103.467C200.84 105.834 202.084 108.733 202.084 112.166V137.021Z" fill="#010518"/>
<path d="M338.6 137.021C338.6 140.453 337.356 143.412 334.867 145.897C332.498 148.265 329.594 149.448 326.158 149.448H276.39C272.954 149.448 269.991 148.265 267.503 145.897C265.133 143.412 263.948 140.453 263.948 137.021V74.8834C263.948 71.4511 265.133 68.5513 267.503 66.1842C269.991 63.6987 272.954 62.4559 276.39 62.4559H326.158C329.594 62.4559 332.498 63.6987 334.867 66.1842C337.356 68.5513 338.6 71.4511 338.6 74.8834V87.3109H324.381V74.8834H278.167V137.021H324.381V124.593H338.6V137.021Z" fill="#D8E7FF"/>
<path d="M423.993 137.021C423.993 140.453 422.749 143.412 420.26 145.897C417.89 148.265 414.987 149.448 411.551 149.448H374.225C370.789 149.448 367.826 148.265 365.338 145.897C362.968 143.412 361.783 140.453 361.783 137.021V99.7383C361.783 96.306 362.968 93.4062 365.338 91.0391C367.826 88.5536 370.789 87.3109 374.225 87.3109H411.551C414.987 87.3109 417.89 88.5536 420.26 91.0391C422.749 93.4062 423.993 96.306 423.993 99.7383V137.021ZM411.551 138.796V97.963H374.225V138.796H411.551Z" fill="#D8E7FF"/>
<path d="M511.129 149.448H498.687V140.571L489.799 149.448H461.361C457.924 149.448 454.962 148.265 452.473 145.897C450.104 143.412 448.919 140.453 448.919 137.021V99.7383C448.919 96.306 450.104 93.4062 452.473 91.0391C454.962 88.5536 457.924 87.3109 461.361 87.3109H498.687V58.9052L511.129 46.4778V149.448ZM498.687 138.796V89.0862L489.799 97.963H461.361V138.796H498.687Z" fill="#D8E7FF"/>
<path d="M600 149.448H550.232C546.796 149.448 543.833 148.265 541.345 145.897C538.975 143.412 537.79 140.453 537.79 137.021V99.7383C537.79 96.306 538.975 93.4062 541.345 91.0391C543.833 88.5536 546.796 87.3109 550.232 87.3109H587.558C590.994 87.3109 593.898 88.5536 596.267 91.0391C598.756 93.4062 600 96.306 600 99.7383V112.166L587.558 124.593H552.009L562.674 113.941H587.558V97.963H550.232V138.796H600V149.448Z" fill="#D8E7FF"/>
</g>
<defs>
<clipPath id="clip0_27_37">
<rect width="600" height="205" fill="white"/>
</clipPath>
</defs>
</svg>
