<svg width="2124" height="854" viewBox="0 0 2124 854" fill="none" xmlns="http://www.w3.org/2000/svg">
<g clip-path="url(#clip0_6_63)">
<path d="M46.638 323.144H72.398V392.696H124.562V416.202H72.398V522.14L84.956 540.494H117.478L136.798 521.174L150 540.494L128.104 564H72.398L46.638 526.004V416.202H21.2V392.696H46.638V323.144ZM207.512 322.822H233.272V408.474L259.032 393.018H323.432L350.158 431.014V564H324.076V434.234L311.84 416.202H243.898L233.272 426.184V564H207.512V322.822ZM426.024 393.018H516.184L542.91 431.336L489.78 486.076H426.024V522.14L438.582 540.816H506.846L524.878 523.106L539.046 540.816L516.506 564H426.346L400.264 525.36V419.744L426.024 393.018ZM426.024 426.506V462.892H480.12L512.642 428.76L504.27 416.202H436.328L426.024 426.506ZM628.437 338.6H739.527V361.784H638.097L622.641 377.884V431.98H697.345V455.486H622.641V564H596.881V370.8L628.437 338.6ZM812.817 393.018H903.943L929.703 431.658V537.274L903.943 564H813.139L787.057 525.36V419.744L812.817 393.018ZM812.495 522.14L825.375 540.816H893.639L903.299 530.512V434.556L891.063 416.202H822.477L812.495 426.828V522.14ZM978.199 393.018H992.367L1022.96 411.372L1040.67 393.018H1107L1123.74 417.49L1104.42 430.692L1094.76 416.202H1050.65L1036.48 431.336V540.816H1081.88V564H978.199V540.816H1010.72V434.556L998.163 416.202H978.199V393.018ZM1172.88 323.144H1198.64V453.232L1266.59 383.036H1298.79L1250.16 432.946L1315.53 529.546V564H1289.45V532.444L1233.42 450.334L1198.64 486.076V564H1172.88V323.144ZM1393.65 393.018H1482.52L1499.27 417.812L1483.49 434.556L1470.61 415.558H1404.92L1394.94 424.252V448.724L1407.17 466.112H1483.17L1505.06 498.956V539.85L1483.17 564H1382.06L1369.18 544.036L1384.96 527.614L1393.65 540.816H1472.54L1479.3 533.088V502.82L1469.96 489.618H1393.65L1369.18 452.588V416.846L1393.65 393.018ZM1607.65 564V518.92H1652.73V564H1607.65ZM1764.99 386.9H1810.39L1836.15 425.54V540.816H1894.43V564H1752.11V540.816H1810.39V428.76L1798.15 410.406H1764.99V386.9ZM1807.17 344.718H1839.37V312.518H1807.17V344.718ZM1971.26 393.018H2062.39L2088.15 431.658V537.274L2062.39 564H1971.58L1945.5 525.36V419.744L1971.26 393.018ZM1970.94 522.14L1983.82 540.816H2052.08L2061.74 530.512V434.556L2049.51 416.202H1980.92L1970.94 426.828V522.14Z" fill="#053A0D"/>
<line x1="1204.7" y1="462.168" x2="1291.7" y2="369.168" stroke="#0A1631" stroke-width="20"/>
<circle cx="30" cy="30" r="30" transform="matrix(0.869725 0.493536 0.493536 -0.869725 1151 472.184)" fill="#0A1631"/>
<circle cx="30" cy="30" r="30" transform="matrix(0.869725 0.493536 0.493536 -0.869725 1247 383.184)" fill="#0A1631"/>
<circle cx="30" cy="30" r="30" transform="matrix(0.869725 0.493536 0.493536 -0.869725 1355.46 157.603)" fill="#0A1631"/>
<circle cx="30" cy="30" r="30" transform="matrix(0.869725 0.493536 0.493536 -0.869725 1371.16 292.708)" fill="#0A1631"/>
<circle cx="30" cy="30" r="30" transform="matrix(0.869725 0.493536 0.493536 -0.869725 1414.85 52.1836)" fill="#0A1631"/>
<circle cx="40" cy="40" r="40" transform="matrix(-0.00306707 0.999995 0.999995 0.00306707 982.245 524.091)" fill="#0A1631"/>
<circle cx="40" cy="40" r="40" transform="matrix(-0.00306707 0.999995 0.999995 0.00306707 1767.25 524.091)" fill="#0A1631"/>
<circle cx="40" cy="40" r="40" transform="matrix(-0.00306707 0.999995 0.999995 0.00306707 1143.25 552)" fill="#0A1631"/>
<circle cx="40" cy="40" r="40" transform="matrix(-0.00306707 0.999995 0.999995 0.00306707 1264.25 524.091)" fill="#0A1631"/>
<circle cx="40" cy="40" r="40" transform="matrix(-0.00306707 0.999995 0.999995 0.00306707 982.245 524.091)" fill="#0A1631"/>
<circle cx="40" cy="40" r="40" transform="matrix(-0.00306707 0.999995 0.999995 0.00306707 479.245 524.091)" fill="#0A1631"/>
<circle cx="40" cy="40" r="40" transform="matrix(-0.00306707 0.999995 0.999995 0.00306707 1470.25 774.091)" fill="#0A1631"/>
<circle cx="40" cy="40" r="40" transform="matrix(-0.00306707 0.999995 0.999995 0.00306707 1470.25 774.091)" fill="#0A1631"/>
<circle cx="40" cy="40" r="40" transform="matrix(-0.00306707 0.999995 0.999995 0.00306707 1611.25 774.091)" fill="#0A1631"/>
<circle cx="40" cy="40" r="40" transform="matrix(-0.00306707 0.999995 0.999995 0.00306707 645.245 774.091)" fill="#0A1631"/>
<circle cx="40" cy="40" r="40" transform="matrix(-0.00306707 0.999995 0.999995 0.00306707 645.245 774.091)" fill="#0A1631"/>
<circle cx="40" cy="40" r="40" transform="matrix(-0.00306707 0.999995 0.999995 0.00306707 829.245 774.091)" fill="#0A1631"/>
<circle cx="40" cy="40" r="40" transform="matrix(-0.00306707 0.999995 0.999995 0.00306707 982.245 524.091)" fill="#0A1631"/>
<line y1="-10" x2="294.68" y2="-10" transform="matrix(0.529389 -0.848379 -0.848379 -0.529389 1651 814.336)" stroke="#0A1631" stroke-width="20"/>
<line x1="2124.01" y1="574" x2="1807.01" y2="574.336" stroke="#0A1631" stroke-width="20"/>
<line x1="519" y1="574" x2="3.09348e-05" y2="574" stroke="#0A1631" stroke-width="20"/>
<line y1="-10" x2="141" y2="-10" transform="matrix(1 0 0 -1 1510 814.336)" stroke="#0A1631" stroke-width="20"/>
<line y1="-10" x2="181" y2="-10" transform="matrix(1 0 0 -1 685 814.336)" stroke="#0A1631" stroke-width="20"/>
<line x1="1023.69" y1="554.481" x2="1184.69" y2="582.144" stroke="#0A1631" stroke-width="20"/>
<line x1="1180.77" y1="582.252" x2="1301.77" y2="554.588" stroke="#0A1631" stroke-width="20"/>
<line x1="1182" y1="570" x2="1182" y2="461" stroke="#0A1631" stroke-width="20"/>
<line x1="1417.98" y1="283.015" x2="1287.98" y2="380.015" stroke="#0A1631" stroke-width="20"/>
<line y1="-10" x2="121.165" y2="-10" transform="matrix(-0.206577 -0.97843 -0.97843 0.206577 1412.09 281.547)" stroke="#0A1631" stroke-width="20"/>
<line y1="-10" x2="121" y2="-10" transform="matrix(0.490866 -0.871235 -0.871235 -0.490866 1396.88 145.571)" stroke="#0A1631" stroke-width="20"/>
<line y1="-10" x2="294.68" y2="-10" transform="matrix(0.529389 -0.848379 -0.848379 -0.529389 866 814.336)" stroke="#0A1631" stroke-width="20"/>
<line y1="-10" x2="323.938" y2="-10" transform="matrix(-0.635924 -0.771752 -0.771752 0.635924 1510 814.336)" stroke="#0A1631" stroke-width="20"/>
<line y1="-10" x2="293.626" y2="-10" transform="matrix(-0.524477 -0.851424 -0.851424 0.524477 673 814.336)" stroke="#0A1631" stroke-width="20"/>
</g>
<defs>
<clipPath id="clip0_6_63">
<rect width="2124" height="854" fill="white"/>
</clipPath>
</defs>
</svg>
