<svg width="2124" height="1219" viewBox="0 0 2124 1219" fill="none" xmlns="http://www.w3.org/2000/svg">
<g clip-path="url(#clip0_6_63)">
<line y1="-10" x2="121" y2="-10" transform="matrix(0.490866 -0.871235 -0.871235 -0.490866 1232.93 574.564)" stroke="#111111" stroke-width="20"/>
<path d="M57.638 421.144H83.398V490.696H135.562V514.202H83.398V620.14L95.956 638.494H128.478L147.798 619.174L161 638.494L139.104 662H83.398L57.638 624.004V514.202H32.2V490.696H57.638V421.144ZM218.512 420.822H244.272V506.474L270.032 491.018H334.432L361.158 529.014V662H335.076V532.234L322.84 514.202H254.898L244.272 524.184V662H218.512V420.822ZM437.024 491.018H527.184L553.91 529.336L500.78 584.076H437.024V620.14L449.582 638.816H517.846L535.878 621.106L550.046 638.816L527.506 662H437.346L411.264 623.36V517.744L437.024 491.018ZM437.024 524.506V560.892H491.12L523.642 526.76L515.27 514.202H447.328L437.024 524.506ZM639.437 436.6H750.527V459.784H649.097L633.641 475.884V529.98H708.345V553.486H633.641V662H607.881V468.8L639.437 436.6ZM823.817 491.018H914.943L940.703 529.658V635.274L914.943 662H824.139L798.057 623.36V517.744L823.817 491.018ZM823.495 620.14L836.375 638.816H904.639L914.299 628.512V532.556L902.063 514.202H833.477L823.495 524.828V620.14ZM989.199 491.018H1003.37L1033.96 509.372L1051.67 491.018H1118L1134.74 515.49L1115.42 528.692L1105.76 514.202H1061.65L1047.48 529.336V638.816H1092.88V662H989.199V638.816H1021.72V532.556L1009.16 514.202H989.199V491.018ZM1183.88 421.144H1209.64V551.232L1277.59 481.036H1309.79L1261.16 530.946L1326.53 627.546V662H1300.45V630.444L1244.42 548.334L1209.64 584.076V662H1183.88V421.144ZM1404.65 491.018H1493.52L1510.27 515.812L1494.49 532.556L1481.61 513.558H1415.92L1405.94 522.252V546.724L1418.17 564.112H1494.17L1516.06 596.956V637.85L1494.17 662H1393.06L1380.18 642.036L1395.96 625.614L1404.65 638.816H1483.54L1490.3 631.088V600.82L1480.96 587.618H1404.65L1380.18 550.588V514.846L1404.65 491.018ZM1618.65 662V616.92H1663.73V662H1618.65ZM1775.99 484.9H1821.39L1847.15 523.54V638.816H1905.43V662H1763.11V638.816H1821.39V526.76L1809.15 508.406H1775.99V484.9ZM1818.17 442.718H1850.37V410.518H1818.17V442.718ZM1982.26 491.018H2073.39L2099.15 529.658V635.274L2073.39 662H1982.58L1956.5 623.36V517.744L1982.26 491.018ZM1981.94 620.14L1994.82 638.816H2063.08L2072.74 628.512V532.556L2060.51 514.202H1991.92L1981.94 524.828V620.14Z" fill="#010518"/>
<circle cx="30" cy="30" r="30" transform="matrix(0.869725 0.493536 0.493536 -0.869725 1192 585.724)" fill="#111111"/>
<circle cx="30" cy="30" r="30" transform="matrix(0.869725 0.493536 0.493536 -0.869725 1251.39 480.305)" fill="#111111"/>
<circle cx="30" cy="30" r="30" transform="matrix(0.869725 0.493536 0.493536 -0.869725 1355.46 295.603)" fill="#111111"/>
<circle cx="30" cy="30" r="30" transform="matrix(0.869725 0.493536 0.493536 -0.869725 1371.16 430.708)" fill="#111111"/>
<circle cx="30" cy="30" r="30" transform="matrix(0.869725 0.493536 0.493536 -0.869725 1414.85 190.183)" fill="#111111"/>
<circle cx="40" cy="40" r="40" transform="matrix(-0.00306707 0.999995 0.999995 0.00306707 982.245 662.091)" fill="#111111"/>
<circle cx="40" cy="40" r="40" transform="matrix(-0.00306707 0.999995 0.999995 0.00306707 1767.25 662.091)" fill="#111111"/>
<circle cx="40" cy="40" r="40" transform="matrix(-0.00306707 0.999995 0.999995 0.00306707 1123.25 662.091)" fill="#111111"/>
<circle cx="40" cy="40" r="40" transform="matrix(-0.00306707 0.999995 0.999995 0.00306707 1123.25 662.091)" fill="#111111"/>
<circle cx="40" cy="40" r="40" transform="matrix(-0.00306707 0.999995 0.999995 0.00306707 1264.25 662.091)" fill="#111111"/>
<circle cx="40" cy="40" r="40" transform="matrix(-0.00306707 0.999995 0.999995 0.00306707 982.245 662.091)" fill="#111111"/>
<circle cx="40" cy="40" r="40" transform="matrix(-0.00306707 0.999995 0.999995 0.00306707 479.245 662.091)" fill="#111111"/>
<circle cx="40" cy="40" r="40" transform="matrix(-0.00306707 0.999995 0.999995 0.00306707 1470.25 912.091)" fill="#111111"/>
<circle cx="40" cy="40" r="40" transform="matrix(-0.00306707 0.999995 0.999995 0.00306707 1470.25 912.091)" fill="#111111"/>
<circle cx="40" cy="40" r="40" transform="matrix(-0.00306707 0.999995 0.999995 0.00306707 1611.25 912.091)" fill="#111111"/>
<circle cx="40" cy="40" r="40" transform="matrix(-0.00306707 0.999995 0.999995 0.00306707 645.245 912.091)" fill="#111111"/>
<circle cx="40" cy="40" r="40" transform="matrix(-0.00306707 0.999995 0.999995 0.00306707 645.245 912.091)" fill="#111111"/>
<circle cx="40" cy="40" r="40" transform="matrix(-0.00306707 0.999995 0.999995 0.00306707 829.245 912.091)" fill="#111111"/>
<circle cx="40" cy="40" r="40" transform="matrix(-0.00306707 0.999995 0.999995 0.00306707 982.245 662.091)" fill="#111111"/>
<line y1="-10" x2="294.68" y2="-10" transform="matrix(0.529389 -0.848379 -0.848379 -0.529389 1651 952.336)" stroke="#111111" stroke-width="20"/>
<line x1="2124.01" y1="712" x2="1807.01" y2="712.336" stroke="#111111" stroke-width="20"/>
<line x1="519" y1="712" x2="3.09348e-05" y2="712" stroke="#111111" stroke-width="20"/>
<line y1="-10" x2="141" y2="-10" transform="matrix(1 0 0 -1 1510 952.336)" stroke="#111111" stroke-width="20"/>
<line y1="-10" x2="181" y2="-10" transform="matrix(1 0 0 -1 685 952.336)" stroke="#111111" stroke-width="20"/>
<line y1="-10" x2="141" y2="-10" transform="matrix(1 0 0 -1 1022 702.336)" stroke="#111111" stroke-width="20"/>
<line y1="-10" x2="141" y2="-10" transform="matrix(1 0 0 -1 1163 702.336)" stroke="#111111" stroke-width="20"/>
<line y1="-10" x2="145.89" y2="-10" transform="matrix(0.479812 -0.877371 -0.877371 -0.479812 1163 702.336)" stroke="#111111" stroke-width="20"/>
<line y1="-10" x2="129.63" y2="-10" transform="matrix(-0.923914 0.382601 0.382601 0.923914 1412.09 419.547)" stroke="#111111" stroke-width="20"/>
<line y1="-10" x2="121.165" y2="-10" transform="matrix(-0.206577 -0.97843 -0.97843 0.206577 1412.09 419.547)" stroke="#111111" stroke-width="20"/>
<line y1="-10" x2="121" y2="-10" transform="matrix(0.490866 -0.871235 -0.871235 -0.490866 1396.88 283.571)" stroke="#111111" stroke-width="20"/>
<line y1="-10" x2="294.68" y2="-10" transform="matrix(0.529389 -0.848379 -0.848379 -0.529389 866 952.336)" stroke="#111111" stroke-width="20"/>
<line y1="-10" x2="323.938" y2="-10" transform="matrix(-0.635924 -0.771752 -0.771752 0.635924 1510 952.336)" stroke="#111111" stroke-width="20"/>
<line y1="-10" x2="293.626" y2="-10" transform="matrix(-0.524477 -0.851424 -0.851424 0.524477 673 952.336)" stroke="#111111" stroke-width="20"/>
</g>
<defs>
<clipPath id="clip0_6_63">
<rect width="2124" height="1219" fill="white"/>
</clipPath>
</defs>
</svg>
